<svg xmlns="http://www.w3.org/2000/svg" width="2237" height="1067" fill="none"><path fill="#fff" fill-rule="evenodd" d="M1135.11 68.773c-1.39.56-1.78 18.199-1.78 81.487 0 44.424-.48 80.772-1.07 80.772-.59 0-30.12-29.096-65.63-64.658-35.5-35.561-65.71-65.302-67.132-66.089-1.883-1.046-3.501-.828-5.997.807l-3.418 2.241-.389 80.863-.389 80.864-83.365 83.417c-53.375 53.408-83.365 84.415-83.365 86.193 0 3.098 135.713 140.004 142.182 143.434 2.973 1.575 10.509 2.031 33.617 2.031 18.286 0 30.126.546 30.666 1.416.82 1.34-1.97 6.676-24.91 47.543-8.218 14.648-56.503 101.422-80.377 144.451-4.446 8.014-7.519 15.22-7.261 17.029l.445 3.138 77.335.393c42.538.216 78.708.058 80.398-.349 1.91-.463 4.89-4.065 7.97-9.616 2.7-4.882 10.98-19.733 18.39-33.002 74.88-134.048 103.32-185.938 102.94-187.871-.38-2.022-4.58-2.334-35.89-2.664l-35.46-.374-62.08-62.061c-34.14-34.134-62.08-62.705-62.08-63.491 0-.788 32.9-34.317 73.11-74.511l73.11-73.079 48.64 48.96c50.59 50.918 57.59 59.28 68.34 81.599 6.91 14.363 12.54 33.185 15.63 52.246 1.62 10.021.78 38.633-1.5 50.612-4.9 25.854-9.38 36.57-32.88 78.657-7.44 13.341-16.52 29.685-20.17 36.319-3.65 6.635-22.85 41.119-42.67 76.633-48.09 86.187-43.51 77.307-41.25 80.032 1.72 2.079 9.69 2.264 82.89 1.933l80.98-.366 4.49-7.805c4.76-8.272 16.68-29.616 36.07-64.57 6.5-11.708 15.76-28.311 20.58-36.897 30.43-54.124 37.81-69.551 47.39-99.022 5.86-18.048 10.5-39.986 12.81-60.629 1.93-17.167.82-64.614-1.91-81.599-8.75-54.582-32.42-107.402-68.34-152.555-5.28-6.634-56.9-59.484-114.7-117.443-107.61-107.889-106.93-107.263-113.97-104.419Zm-24.3 323.167c-36.01 36.091-41.41 42.057-40.15 44.347 2.26 4.106 81.73 82.826 83.61 82.826 2.73 0 84.07-82.173 84.07-84.931 0-1.388-6.35-8.755-14.1-16.371-16.25-15.966-14.48-15.86-28.43-1.686-5.05 5.13-9.89 9.326-10.76 9.326-.87 0-6.19-4.761-11.83-10.579-11.92-12.291-12-11.199 1.87-24.858 5.13-5.05 9.32-9.853 9.32-10.67 0-2.329-27.46-29.106-29.85-29.106-1.18 0-20.86 18.766-43.75 41.702ZM880.475 852.25C875.581 857.938 802 992.663 802 995.936v3.548l314.56.357c311.57.359 314.57.329 315.45-2.429.63-2-9.02-20.556-34.13-65.637-19.26-34.567-36.95-66.362-39.31-70.655-2.35-4.293-5.27-8.603-6.48-9.579-1.74-1.404-51.04-1.774-235.84-1.774-220.752 0-233.756.138-235.775 2.483Z" clip-rule="evenodd"/><path fill="#fff" d="M323.8 785V361.4h66L418 446v339h-94.2Zm292.2 0L366.4 465.2l23.4-103.8 249.6 319.8L616 785Zm0 0-25.2-84.6v-339H685V785h-69Zm1219.37 0-118.2-189h-11.4l-163.2-234.6h112.2l116.4 177.6h11.4l163.2 246h-110.4Zm-300.6 0 156.6-226.8 72.6 40.8-121.8 186h-107.4Zm251.4-199.8-72.6-40.8 117.6-183h107.4l-152.4 223.8Z"/></svg>